<?xml version="1.0" encoding="UTF-8"?>
<svg id="Layer_1" xmlns="http://www.w3.org/2000/svg" width="512" height="512" version="1.1" viewBox="0 0 512 512">
  <!-- Generator: Adobe Illustrator 29.8.2, SVG Export Plug-In . SVG Version: 2.1.1 Build 3)  -->
  <path d="M67.44,312.758c-1.071-.907-.881-2.507-.988-3.847-.069-3.537-.019-9.928-.035-17.814.013-23.974-.026-61.509.02-72.396-.038-2.881.703-4.341,4.051-4.45,9.204-.332,20.751-.074,30.356-.151,17.322-.084,32.876-.4,42.891,14.224,4.665,7.418,6.002,17.409,3.579,25.857-4.743,16.444-23.463,14.911-18.799,24.029,5.03,9.025,12.998,19.864,18.35,28.385,2.361,3.645,3.437,5.504,2.537,6.215-15.87,1.604-61.667.085-77.128.587-1.773-.026-3.548.087-4.793-.609l-.042-.03Z"/>
  <path d="M400.2,275.9"/>
  <g>
    <path d="M235.397,313.228c-.516-.759.063-1.734.339-2.591,1.319-3.207,4.25-9.969,7.912-18.571,9.498-22.206,22.838-53.48,32.094-75.083,1.045-2.167,1.344-3.467,2.438-1.458,7.1,16.246,34.802,79.951,41.589,96.319.738,2.525-2.222,1.808-5.431,1.99-4.73.003-12.634,0-21.65.001-16.957-.012-39.824.045-54.665-.034-.917-.058-1.931-.004-2.601-.544l-.026-.028Z"/>
    <path d="M297.743,214.235c.675-.524,1.677-.477,2.583-.54,14.738-.08,37.134-.021,53.794-.038,8.622.003,16.055-.007,20.313.005,3.262.178,5.322-.388,4.594,2.307-6.658,17.153-31.974,80.519-38.387,96.19-1.01,2.006-1.512-.134-2.497-2.119-9.321-21.622-22.603-52.489-32.132-74.612-3.691-8.603-6.646-15.367-7.974-18.574-.292-.868-.855-1.834-.321-2.592l.027-.028Z"/>
  </g>
  <path d="M240.347,254.469c-1.242,1.309-2.995,1.452-4.724,1.504-17.368.061-52.613.027-64.765.011-5.409.268-5.45-2.708-5.586-7.771-.058-2.981-.036-6.876-.032-10.232.016-2.929.058-5.366.337-6.985.471-2.904,1.792-3.249,4.882-3.285,14.053-.01,64.477-.034,77.379.012,1.402.085,2.985-.004,3.185,1.508.105,1.023-.496,2.811-1.516,5.372-1.37,3.393-3.462,8.306-5.103,12.21-1.567,3.67-2.723,6.275-3.985,7.581l-.071.073Z"/>
  <path d="M221.849,298.291c-1.587,1.799-6.347,1.481-10.32,1.508-12.247-.01-30.852.022-39.71-.018-7.321.371-6.402-4.047-6.619-10.114.03-4.087-.182-9.903.325-13.511.37-3.598,3.128-3.647,6.062-3.649,11.94-.011,44.422-.016,55.989.002,2.123.099,5.127-.228,4.496,2.76-1.006,4.199-4.388,11.292-6.188,15.82-1.468,3.431-2.589,5.875-3.955,7.126l-.082.074Z"/>
  <path d="M375.837,274.102c1.224-1.352,2.983-1.521,4.726-1.573,17.42-.067,52.312-.024,64.639-.015,5.214-.254,5.596,2.284,5.717,7.315.076,2.891.052,6.706.045,10.003-.02,2.878-.076,5.268-.384,6.841-.507,2.741-1.861,3.079-4.893,3.117-13.938.013-63.225.031-76.253-.009-1.371-.079-2.97.014-3.317-1.366-.203-.946.278-2.617,1.178-5.046,1.217-3.232,3.165-7.987,4.707-11.813,1.443-3.517,2.549-6.065,3.764-7.377l.071-.076Z"/>
  <path d="M393.905,229.175c1.559-1.763,6.392-1.447,10.377-1.475,12.206.017,31.021-.037,39.522.028,7.219-.322,5.907,4.881,6.183,10.644-.036,4.191.169,10.079-.288,13.784-.382,2.667-1.379,3.525-3.739,3.735-12.935.287-45.44.03-58.089.096-1.37-.039-3.008,0-3.935-.671-1.63-1.655.91-5.957,1.991-9.154,2.261-4.945,4.783-13.531,7.898-16.915l.081-.073Z"/>
</svg>