<?xml version="1.0" encoding="UTF-8" standalone="no"?>
<!-- Created with Inkscape (http://www.inkscape.org/) -->

<svg
   width="100.75033mm"
   height="10.30397mm"
   viewBox="0 0 100.75033 10.30397"
   version="1.1"
   id="svg1"
   inkscape:version="1.4 (86a8ad7, 2024-10-11)"
   sodipodi:docname="Johnnie Walker wordmark.svg"
   xmlns:inkscape="http://www.inkscape.org/namespaces/inkscape"
   xmlns:sodipodi="http://sodipodi.sourceforge.net/DTD/sodipodi-0.dtd"
   xmlns="http://www.w3.org/2000/svg"
   xmlns:svg="http://www.w3.org/2000/svg">
  <sodipodi:namedview
     id="namedview1"
     pagecolor="#ffffff"
     bordercolor="#000000"
     borderopacity="0.25"
     inkscape:showpageshadow="2"
     inkscape:pageopacity="0.0"
     inkscape:pagecheckerboard="0"
     inkscape:deskcolor="#d1d1d1"
     inkscape:document-units="mm"
     inkscape:zoom="3.9458701"
     inkscape:cx="113.02957"
     inkscape:cy="21.921654"
     inkscape:window-width="1920"
     inkscape:window-height="1001"
     inkscape:window-x="-9"
     inkscape:window-y="-9"
     inkscape:window-maximized="1"
     inkscape:current-layer="layer1" />
  <defs
     id="defs1" />
  <g
     inkscape:label="Layer 1"
     inkscape:groupmode="layer"
     id="layer1"
     transform="translate(-133.08542,-253.20633)">
    <path
       class="st0"
       d="m 169.25167,254.82136 h 2.08534 v 0.0613 l -0.71556,0.63378 c -0.0409,1.04266 -0.0409,2.024 -0.0409,2.90311 0,0.89956 0.0409,1.73778 0.0818,2.51467 h -0.83822 c 0,-0.0409 -0.0204,-0.12267 -0.0818,-0.184 -0.0613,-0.0613 -0.12267,-0.14311 -0.16355,-0.20444 l -3.57779,-4.51823 c 0,1.39022 0.0204,2.78045 0.0613,4.19111 l 0.77689,0.59289 v 0.0818 h -2.08534 v -0.0818 l 0.71556,-0.59289 c 0.0613,-1.22666 0.0613,-2.80089 0,-4.76356 l -0.85867,-0.61333 v -0.0613 h 1.79911 c 0.0818,0.14311 0.22489,0.368 0.44978,0.61333 0.20445,0.28622 0.47022,0.61333 0.79734,1.00178 0.30666,0.368 0.67466,0.83822 1.08355,1.34933 0.40889,0.51112 0.85867,1.06312 1.34934,1.71734 0,-0.75645 0,-1.45156 -0.0205,-2.12623 -0.0204,-0.67466 -0.0204,-1.288 -0.0204,-1.86044 l -0.81778,-0.63378 v -0.0205 z m 5.70401,0.55201 0.69511,-0.49067 v -0.0613 h -2.45333 v 0.0613 l 0.69511,0.49067 v 4.92711 l -0.736,0.51111 v 0.0818 h 2.49422 v -0.0818 l -0.736,-0.51111 c 0.0204,-1.57422 0.0204,-3.20978 0.0409,-4.92711 z m 6.88979,4.98845 c -0.85867,0.0409 -1.6969,0.0409 -2.47379,0 -0.0204,-0.79734 -0.0204,-1.59467 0,-2.39201 0.44978,-0.0204 1.08356,-0.0204 1.90134,-0.0204 l 0.47022,0.69511 h 0.0613 v -1.88089 h -0.0613 l -0.47022,0.71556 c -1.08356,0 -1.71733,-0.0204 -1.92178,-0.0204 0,-0.34756 -0.0204,-0.69511 -0.0204,-1.04267 0,-0.34755 0,-0.69511 0.0204,-1.06311 0.368,-0.0204 0.79733,-0.0409 1.18578,-0.0409 h 1.26756 l 0.51111,0.69511 h 0.0613 V 254.801 h -4.76356 v 0.0613 l 0.69511,0.49067 c 0.0205,1.41067 0.0205,3.04623 0,4.92712 l -0.69511,0.51111 v 0.0818 h 4.88623 v -1.34934 h -0.0613 z m -20.99647,-5.47912 0.81778,0.63378 c 0,0.57244 0.0204,1.18578 0.0204,1.86044 0.0205,0.67467 0.0205,1.36978 0.0205,2.12623 -0.49067,-0.65423 -0.94045,-1.20623 -1.32889,-1.71734 -0.40889,-0.51111 -0.77689,-0.96089 -1.10401,-1.34933 -0.30666,-0.38845 -0.57244,-0.71556 -0.77689,-1.00178 -0.20444,-0.26578 -0.368,-0.47022 -0.44977,-0.61334 H 156.249 v 0.0613 l 0.83823,0.61333 c 0.0613,1.94223 0.0613,3.53689 0,4.76356 l -0.69512,0.59289 v 0.0818 h 2.0649 v -0.0818 l -0.77689,-0.59289 c -0.0409,-1.43111 -0.0818,-2.82133 -0.0818,-4.19111 l 3.59822,4.51822 c 0.0613,0.0613 0.10223,0.12267 0.16356,0.20445 0.0613,0.0613 0.0818,0.14311 0.0818,0.184 h 0.83822 c -0.0613,-0.77689 -0.0818,-1.61511 -0.0818,-2.51467 0,-0.87911 0,-1.86045 0.0409,-2.90311 l 0.71556,-0.63378 v -0.0613 h -2.08534 v 0.0205 z m 36.28893,-1.55378 c 0.12266,0.0613 0.22489,0.16355 0.34755,0.24533 0.12267,0.0818 0.22489,0.16356 0.32711,0.24534 -0.22488,0.79733 -0.42933,1.51289 -0.61333,2.16711 -0.184,0.63378 -0.34756,1.18578 -0.49067,1.67645 -0.14311,0.47022 -0.24533,0.85866 -0.32711,1.16533 -0.0818,0.28622 -0.14311,0.51111 -0.16355,0.61333 l -1.67645,-5.56089 0.32711,-0.32711 c 0.12267,-0.10222 0.22489,-0.184 0.32711,-0.24534 v -0.0613 h -2.67822 v 0.0818 l 0.67466,0.51111 c -0.184,0.57245 -0.34755,1.12445 -0.51111,1.67645 -0.14311,0.51111 -0.30666,1.00178 -0.42933,1.472 -0.14311,0.44978 -0.26578,0.87911 -0.368,1.288 -0.12267,0.38844 -0.22489,0.77689 -0.32711,1.12445 l -1.59467,-5.54046 0.65422,-0.53155 v -0.0613 h -2.576 v 0.0613 c 0.10222,0.0818 0.20444,0.16355 0.28622,0.22489 0.0818,0.0613 0.14311,0.10222 0.184,0.16355 l 0.12267,0.12267 c 0.0204,0.0409 0.0613,0.0818 0.0613,0.12267 0.0818,0.26578 0.20445,0.63378 0.368,1.104 0.16356,0.49067 0.32711,1.06311 0.53156,1.67644 0.20444,0.61334 0.42933,1.28801 0.65422,2.02401 0.22489,0.736 0.47022,1.472 0.69511,2.28978 h 0.85867 c -0.0204,-0.0409 -0.0204,-0.0613 -0.0204,-0.0818 0,-0.0613 0,-0.10222 0.0204,-0.14311 0.0205,-0.0409 0.0205,-0.10222 0.0409,-0.16356 0.0204,-0.0613 0.0409,-0.10222 0.0409,-0.14311 0.0818,-0.26578 0.14311,-0.552 0.22489,-0.85867 0.0818,-0.30666 0.16355,-0.65422 0.26578,-0.98133 0.10222,-0.34756 0.20444,-0.69511 0.28622,-1.06311 0.10222,-0.34756 0.20444,-0.71556 0.30667,-1.06312 0.10222,-0.34755 0.184,-0.67466 0.28622,-1.00177 0.0818,-0.34756 0.184,-0.65423 0.26578,-0.92001 l 2.024,6.44001 h 0.81778 c 0.0409,-0.14311 0.10222,-0.38844 0.20444,-0.77689 0.10222,-0.368 0.24534,-0.85867 0.42934,-1.472 0.184,-0.59289 0.38844,-1.30845 0.63377,-2.12622 0.24534,-0.81778 0.53156,-1.75823 0.81778,-2.78045 0.16356,-0.16356 0.30667,-0.28622 0.42934,-0.38845 0.10222,-0.10222 0.184,-0.16355 0.22489,-0.20444 v -0.0613 h -1.98312 v 0.0613 z m -62.31474,-0.0409 0.94045,0.57244 0.0613,6.52179 c 0,0.26578 0,0.49067 -0.0204,0.69511 -0.0205,0.184 -0.0205,0.38845 -0.0613,0.552 -0.0204,0.16356 -0.0818,0.32711 -0.14311,0.47022 -0.0613,0.14312 -0.16355,0.28623 -0.26578,0.40889 -0.14311,0.16356 -0.32711,0.30667 -0.53155,0.40889 -0.20445,0.10223 -0.42934,0.14311 -0.65423,0.14311 0.0205,-0.0204 0.0409,-0.0613 0.0613,-0.10222 0.0204,-0.0204 0.0409,-0.0613 0.0409,-0.12266 0.0204,-0.0409 0.0204,-0.10223 0.0204,-0.16356 0,-0.0613 -0.0204,-0.12267 -0.0409,-0.184 -0.0204,-0.0613 -0.0818,-0.12267 -0.12266,-0.184 l -0.18401,-0.12267 c -0.0818,-0.0409 -0.16355,-0.0613 -0.22488,-0.0613 -0.0818,0 -0.14312,0.0204 -0.22489,0.0409 -0.0613,0.0204 -0.14311,0.0613 -0.184,0.12267 -0.0613,0.0613 -0.10223,0.12266 -0.14311,0.20444 -0.0409,0.0818 -0.0613,0.16356 -0.0613,0.24533 0,0.14311 0.0409,0.24534 0.10222,0.34756 0.0613,0.10222 0.14312,0.184 0.24534,0.24533 0.10222,0.0613 0.20444,0.10223 0.32711,0.14311 0.12267,0.0409 0.24533,0.0409 0.34756,0.0409 0.24533,0 0.47022,-0.0409 0.67466,-0.12266 0.20445,-0.0818 0.40889,-0.184 0.61334,-0.30667 0.184,-0.14311 0.368,-0.28622 0.53155,-0.47022 0.16356,-0.184 0.28623,-0.38845 0.40889,-0.63378 0.10222,-0.184 0.20445,-0.38845 0.28622,-0.57245 0.0818,-0.184 0.16356,-0.34755 0.22489,-0.59289 0.0613,-0.20444 0.10223,-0.42933 0.14311,-0.67466 0.0409,-0.24534 0.0409,-0.53156 0.0409,-0.83823 0,-0.32711 -0.0204,-0.67466 -0.0204,-1.02222 0,-0.34756 0,-0.736 -0.0205,-1.18578 0,-0.42933 -0.0204,-0.92 -0.0204,-1.45156 -0.0204,-0.552 -0.0204,-1.16533 -0.0204,-1.86044 l 0.77689,-0.51111 v -0.0613 h -2.90312 z m 9.95646,5.80623 c 0.12266,-0.368 0.184,-0.75645 0.184,-1.22667 0,-0.40889 -0.0613,-0.77689 -0.14311,-1.12445 -0.10223,-0.34755 -0.24534,-0.63377 -0.42934,-0.87911 -0.184,-0.24533 -0.40889,-0.47022 -0.69511,-0.59289 -0.26578,-0.14311 -0.57245,-0.22489 -0.92,-0.22489 -0.32711,0 -0.63378,0.0818 -0.89956,0.22489 -0.26578,0.14311 -0.49066,0.34756 -0.67466,0.61334 -0.18401,0.24533 -0.32712,0.53155 -0.42934,0.87911 -0.10222,0.34755 -0.14311,0.71556 -0.14311,1.12444 0,0.44978 0.0613,0.83823 0.16356,1.18578 0.12266,0.34756 0.28622,0.65423 0.49066,0.89956 0.20445,0.24533 0.42934,0.42933 0.69511,0.57245 0.26578,0.12266 0.55201,0.184 0.83823,0.184 0.28622,0 0.53155,-0.0613 0.79733,-0.184 0.24534,-0.14312 0.47022,-0.32712 0.67467,-0.57245 0.22489,-0.24533 0.368,-0.53156 0.49067,-0.87911 z m 0.89955,-2.92356 c 0.14311,0.24533 0.26578,0.51111 0.34756,0.79733 0.0818,0.28623 0.12267,0.59289 0.12267,0.89956 0,0.44978 -0.0818,0.85867 -0.24534,1.24711 -0.16355,0.38845 -0.38844,0.736 -0.69511,1.04267 -0.28622,0.30667 -0.63378,0.552 -1.04267,0.71556 -0.40889,0.20444 -0.83822,0.24533 -1.30844,0.24533 -0.47023,0 -0.89956,-0.0409 -1.30845,-0.24533 -0.40889,-0.16356 -0.75644,-0.40889 -1.06311,-0.71556 -0.30667,-0.28622 -0.552,-0.63378 -0.71556,-1.04267 -0.184,-0.38844 -0.26578,-0.81778 -0.26578,-1.26755 0,-0.44978 0.0818,-0.87912 0.26578,-1.28801 0.16356,-0.40889 0.40889,-0.736 0.71556,-1.04266 0.30667,-0.30667 0.65422,-0.53156 1.06311,-0.71556 0.40889,-0.184 0.85867,-0.26578 1.34934,-0.26578 0.28622,0 0.552,0.0409 0.81777,0.10222 0.26578,0.0818 0.51112,0.16356 0.75645,0.32712 0.24533,0.14311 0.47022,0.30666 0.67467,0.53155 0.20444,0.20445 0.38844,0.42934 0.53155,0.67467 z m 6.31734,-1.288 0.69512,0.49067 v 2.06489 h -3.23023 v -2.06489 l 0.69511,-0.49067 v -0.0613 h -2.41245 v 0.0613 l 0.67467,0.49067 v 4.92711 l -0.67467,0.51111 v 0.0818 h 2.4329 v -0.0818 l -0.69512,-0.51111 v -2.37156 c 1.06312,-0.0204 2.12623,-0.0204 3.23023,0 v 2.37156 l -0.69511,0.51111 v 0.0818 h 2.43289 v -0.0818 l -0.69511,-0.51111 c -0.0205,-1.53333 -0.0205,-3.16889 0,-4.92711 l 0.69511,-0.49067 v -0.0613 h -2.45334 z m 51.09073,3.33245 -1.00178,-2.57601 -0.94045,2.57601 z m 1.98311,2.024 0.69511,0.61333 v 0.0818 h -2.65778 v -0.0818 l 0.77689,-0.59289 -0.63378,-1.59467 h -2.28978 l -0.57244,1.59467 0.77689,0.59289 v 0.0818 h -2.04445 v -0.0818 l 0.71556,-0.59289 2.10578,-5.54045 h 0.87911 z m 20.3218,0.16355 c -0.87911,0.0409 -1.71734,0.0409 -2.49422,0 -0.0205,-0.79733 -0.0205,-1.59466 0,-2.392 0.44977,-0.0204 1.08355,-0.0204 1.92178,-0.0204 l 0.47022,0.69511 h 0.0613 v -1.88089 h -0.0613 l -0.47022,0.71555 c -1.08356,0 -1.71734,-0.0204 -1.92178,-0.0204 0,-0.34756 -0.0205,-0.69511 -0.0205,-1.04267 v -1.06311 c 0.368,-0.0204 0.75645,-0.0409 1.18578,-0.0409 h 1.30845 l 0.49066,0.69511 h 0.0613 v -1.20622 h -4.76356 v 0.0613 l 0.69511,0.49067 c 0.0204,1.41067 0.0204,3.04623 0,4.92712 l -0.69511,0.51111 v 0.0818 h 4.88622 v -1.34934 h -0.0818 z m 6.33778,-2.90311 c 0.28623,-0.22489 0.40889,-0.552 0.40889,-0.98133 0,-0.16356 -0.0204,-0.32712 -0.0818,-0.47023 -0.0613,-0.14311 -0.14311,-0.28622 -0.26578,-0.38844 -0.12267,-0.12267 -0.24534,-0.20445 -0.42934,-0.28622 -0.16355,-0.0613 -0.34755,-0.10223 -0.552,-0.10223 h -0.14311 c -0.0818,0 -0.14311,0 -0.22489,0.0205 h -0.28622 c -0.10222,0 -0.184,0.0204 -0.26578,0.0204 l -0.0204,2.49423 h 0.67467 c 0,0 0.92,-0.0613 1.18577,-0.30667 z m 1.96267,3.25067 c 0.0613,0.0613 0.10223,0.0818 0.14312,0.10222 v 0.0818 h -1.39023 l -1.43111,-2.392 c -0.0613,-0.10222 -0.12267,-0.16356 -0.20445,-0.20445 -0.0613,-0.0204 -0.184,-0.0613 -0.30666,-0.0613 h -0.26578 c -0.12267,0 -0.24533,0.0204 -0.38845,0.0204 l 0.0204,2.08534 0.69511,0.47022 v 0.0818 h -2.49422 v -0.0818 l 0.71555,-0.51111 v -4.90667 l -0.69511,-0.51111 v -0.0613 h 2.82134 c 0.368,0 0.69511,0.0409 0.98133,0.12267 0.28622,0.0818 0.552,0.184 0.75645,0.34756 0.20444,0.14311 0.368,0.32711 0.49066,0.53155 0.10223,0.20445 0.184,0.40889 0.184,0.65423 0,0.22488 -0.0613,0.42933 -0.16355,0.63377 -0.10222,0.184 -0.24534,0.34756 -0.40889,0.49067 -0.184,0.14311 -0.38845,0.24533 -0.63378,0.32711 -0.24533,0.0818 -0.51111,0.12267 -0.79733,0.14311 0.20444,0.0205 0.368,0.0818 0.51111,0.16356 0.14311,0.10222 0.24533,0.24533 0.34755,0.40889 l 0.96089,1.49244 c 0.0409,0.0409 0.0818,0.12267 0.14311,0.18401 l 0.184,0.24533 c 0.10223,0.0204 0.16356,0.0818 0.22489,0.14311 z m -17.39824,-3.33245 c 0.53156,-0.49067 0.98134,-0.92 1.34934,-1.26756 0.368,-0.32711 0.63378,-0.57244 0.83822,-0.736 l 0.92,-0.49066 v -0.0613 h -2.04445 v 0.0613 l 0.30667,0.47022 c -0.20444,0.22489 -0.42933,0.44978 -0.65422,0.65422 -0.22489,0.20445 -0.42934,0.40889 -0.65422,0.61334 -0.20445,0.20444 -0.40889,0.38844 -0.61334,0.57244 -0.20444,0.184 -0.38844,0.34756 -0.57244,0.49067 0.69511,0.69511 1.51289,1.57422 2.43289,2.65778 l -0.26578,0.47022 v 0.0818 h 2.208 v -0.0818 l -0.47022,-0.47022 c -1.288,-1.36978 -2.208,-2.33067 -2.78045,-2.96445 z m -1.104,-2.00356 0.71556,-0.49066 v -0.0613 h -2.47378 v 0.0613 l 0.69511,0.49066 c 0.0204,1.63556 0.0204,3.27112 0,4.92712 l -0.71556,0.51111 v 0.0818 h 2.49423 v -0.0818 l -0.71556,-0.51111 c -0.0204,-1.67645 -0.0204,-3.312 0,-4.92712 z m -3.96623,4.96801 h -2.24889 c -0.0204,-1.67645 -0.0204,-3.312 0,-4.96801 l 0.77689,-0.49066 v -0.0613 h -2.51467 v 0.0613 l 0.69512,0.49066 c 0.0204,1.63556 0.0204,3.27112 0,4.92712 l -0.69512,0.51111 v 0.0818 h 4.66134 v -1.34933 h -0.0818 z"
       id="path1"
       style="fill:#000000;stroke-width:0.204445" />
  </g>
</svg>
