<?xml version="1.0" encoding="utf-8"?>
<!-- Generator: Adobe Illustrator 25.0.1, SVG Export Plug-In . SVG Version: 6.00 Build 0)  -->
<svg version="1.1" id="Layer_2_00000065064952510194812120000011820525639769442973_"
	 xmlns="http://www.w3.org/2000/svg" xmlns:xlink="http://www.w3.org/1999/xlink" x="0px" y="0px" viewBox="0 0 868.6 96.1"
	 style="enable-background:new 0 0 868.6 96.1;" xml:space="preserve">
<style type="text/css">
	.st0{fill:#E21836;}
	.st1{fill:#080808;}
</style>
<path class="st0" d="M234.4,28.6v7.8h44.8v23.2h-44.8v7.7h44.8v26.6h-75.1V2.6l-26.7,91.3H129L102.4,2.6v91.3H72.1V2.1h61.6
	l19.6,65.7l19.6-65.7h106.4v26.6H234.4L234.4,28.6z M31.6,2.1H1.5v91.9h65.9V67.1H31.6V2.1z"/>
<g>
	<path class="st1" d="M857.1,12.1h-2v3.7h-1.9V6.4h3.1c0.8,0,1.5,0.1,2,0.2c0.5,0.1,1,0.3,1.4,0.5s0.6,0.5,0.7,0.9s0.2,0.8,0.2,1.3
		s-0.2,1-0.4,1.5c-0.3,0.4-0.7,0.8-1.3,1l2.1,4.1h-2.1C859,15.8,857.1,12.1,857.1,12.1z M855.2,7.8v2.9h1.5c0.7,0,1.2-0.1,1.6-0.4
		c0.3-0.3,0.5-0.6,0.5-1c0-0.3-0.1-0.5-0.2-0.7c-0.1-0.2-0.3-0.3-0.5-0.5c-0.2-0.1-0.4-0.2-0.7-0.3c-0.3-0.1-0.6-0.1-0.9-0.1H855.2z
		"/>
	<path class="st1" d="M856.6,20.8c-5.3,0-9.5-4.3-9.5-9.5s4.3-9.5,9.5-9.5c5.3,0,9.5,4.3,9.5,9.5S861.9,20.8,856.6,20.8z M856.6,3
		c-4.5,0-8.2,3.7-8.2,8.2s3.7,8.2,8.2,8.2c4.5,0,8.2-3.7,8.2-8.2S861.2,3,856.6,3z"/>
</g>
<path class="st1" d="M490.6,2.1h-48.5l-26.7,91.3V2.1h-29.8v48.5L343.8,2.1h-29.2v91.9h30.1V46.4l41.6,47.6h60.5l4.3-15.1h30.6
	l4.3,15.1h31.4L490.6,2.1z M458.6,52.8l7.8-27.5l7.8,27.5H458.6z"/>
<polygon class="st1" points="502.3,28.9 532.2,28.9 532.2,93.9 562.5,93.9 562.5,28.9 592.4,28.9 592.4,2.1 502.3,2.1 502.3,28.9 
	502.3,28.9 "/>
<polygon class="st1" points="597,93.9 627.3,93.9 627.3,2.1 597,2.1 "/>
<path class="st1" d="M717.7,13.7C708.3,5,696.2,0.5,681.5,0.5h-0.4c-14.7,0-26.8,4.4-36.1,13.1c-9.4,8.8-14.1,20.3-14.1,34.3
	s4.8,25.6,14.3,34.3c9.5,8.7,21.6,13.1,36,13.1h0.4c14.7,0,26.8-4.4,36.2-13.1c9.4-8.7,14.1-20.3,14.1-34.4
	C731.8,34,727.1,22.4,717.7,13.7z M695.6,61.7c-3.6,3.5-8.3,5.3-14.1,5.3h-0.4c-5.8,0-10.5-1.8-14.1-5.3c-3.5-3.5-5.4-8.2-5.4-13.7
	c0-5.5,1.8-10.2,5.4-13.7c3.6-3.5,8.3-5.3,14.1-5.3h0.4c5.8,0,10.5,1.8,14.1,5.3c3.5,3.5,5.4,8.1,5.4,13.7S699.2,58.2,695.6,61.7z"
	/>
<polygon class="st1" points="806.5,2.1 806.5,50.5 764.7,2.1 735.4,2.1 735.4,93.9 765.5,93.9 765.5,46.4 807.1,93.9 836.3,93.9 
	836.3,2.1 "/>
</svg>
