<svg xmlns="http://www.w3.org/2000/svg" viewBox="0 0 1000 332.426" fill="#000">
  <g transform="translate(481.78651,-1429.7183)">
    <g transform="matrix(12.440656,0,0,-12.440656,-245.38403,1430.4592)">
      <path d="M 0,0 C 2.356,0.14 6.384,-0.456 6.893,-2.548 7.632,-5.606 2.533,-7.754 1.1,-8.305 c -1.28,-0.273 -2.401,0.725 -1.471,1.866 3.844,1.399 5.594,2.979 4.692,3.685 -2.993,2.343 -13.237,-0.858 -13.677,-2.921 -0.234,-1.138 0.579,-1.979 5.059,-3.539 4.813,-1.901 9.766,-4.171 7.567,-8.429 -3.702,-5.905 -13.337,-5.717 -17.682,-5.378 -2.141,0.271 -3.981,1.023 -4.262,1.602 -0.416,0.498 -0.416,1.605 0.227,1.784 0.592,0.153 0.825,0.068 1.349,-0.065 10.155,-3.165 17.098,0.37 17.944,3.346 1.049,3.634 -11.694,4.814 -12.626,8.986 C -12.962,-2.061 -3.406,-0.19 0,0" />
    </g>
    <g transform="matrix(12.440656,0,0,-12.440656,-17.054509,1667.1601)">
      <path d="M 0,0 C 1.564,-0.887 2.84,3.951 3.781,7.483 3.825,7.788 3.955,8.013 4.223,8.126 3.789,8.314 3.347,8.568 2.879,8.467 0.465,7.933 -1.414,1.96 0,0 m -7.735,18.075 c 1.001,-0.929 -1.238,-8.31 -1.238,-8.31 2.644,0.761 4.334,1.231 5.041,-0.633 0.958,-2.538 -2.89,-7.57 -1.99,-9.341 0.354,-0.72 2.854,1.741 3.082,2.682 0.082,0.352 0.279,1.311 0.376,1.69 0.417,1.632 0.9,3.42 2.231,4.84 2.115,2.398 5.129,2.463 5.758,-0.732 C 7.86,7.701 3.347,1.19 4.887,0.176 6.082,-0.608 7.024,1.185 7.723,2.693 8.029,3.339 9.575,7.692 9.189,7.62 8.074,7.62 7.1,8.222 7.533,9.249 7.701,9.626 9.02,9.626 9.639,9.812 c 0.538,1.781 0.929,2.446 2.207,2.523 0.723,0.038 0.291,-1.395 0.14,-2.254 2.266,0.479 3.897,0.354 4.137,-1.391 0.402,-3.086 -3.643,-7.35 -2.34,-8.795 0.458,-0.418 3.03,0.76 4.184,5.368 1.007,4.066 2.172,9.05 3.47,6.431 0.448,-0.935 -0.441,-1.916 -0.414,-2.781 0.055,-0.018 3.561,3.287 5.102,0.69 C 26.381,9.031 27.734,7.334 26.064,2.033 25.459,0.262 24.84,-0.956 24.051,-1.701 23.322,-2.357 22.296,-2.758 21.35,-2.629 19.711,-2.328 18.822,0.204 20.922,2.212 21.885,2.683 21.355,1.459 21.254,0.819 21.205,0.595 21.205,0.358 21.236,0.204 22.338,-3.666 26.731,7.235 24.143,8.031 22.755,8.286 21.823,7.092 21.039,5.913 17.825,1.089 18.727,-7.214 17.635,-7.502 15.808,-7.998 15.734,-6.607 16.668,-0.845 15.944,-1.421 13.103,-4.126 11.636,-1.29 10.122,1.276 15.168,7.594 13.549,8.095 13.039,8.252 11.693,7.959 11.636,7.813 11.104,6.617 10.299,2.876 8.633,-0.115 6.889,-3.221 4.367,-3.666 3.053,-0.773 1.377,-2.713 -0.706,-3.484 -2.02,-1.97 c -0.297,0.364 -0.467,0.959 -0.548,1.49 -0.823,-0.68 -1.799,-1.699 -3.032,-2.086 -0.803,-0.234 -1.49,-0.175 -1.837,0.019 -0.196,0.116 -0.397,0.275 -0.591,0.493 -1.674,1.814 0.831,4.985 1.699,9.395 0.036,0.279 0.036,0.414 -0.235,0.635 -0.358,0.283 -2.723,-0.221 -3.07,-0.949 -2.472,-8.224 -2.041,-9.458 -2.376,-9.682 -4.593,-1.538 0.338,8.95 -0.222,9.017 -1.323,-0.384 -2.534,0.665 -1.735,2.159 0.192,0.447 2.174,-0.122 2.444,0.663 1.481,4.34 1.384,8.094 2.201,8.816 0.396,0.168 1.246,0.713 1.587,0.075" />
    </g>
    <g transform="matrix(12.440656,0,0,-12.440656,375.66464,1501.0823)">
      <path d="M 0,0 C 0.438,1.036 1.396,1.668 2.132,1.403 2.87,1.145 3.095,0.096 2.655,-0.941 2.216,-1.98 1.257,-2.609 0.526,-2.344 -0.208,-2.086 -0.458,-1.03 0,0" />
    </g>
    <g transform="matrix(12.440656,0,0,-12.440656,410.64159,1654.598)">
      <path d="M 0,0 C 3.209,2.808 3.521,6.296 3.086,6.921 2.941,7.068 2.598,7.179 2.179,6.887 1.049,6.083 -0.889,1.971 0,0 M 2.398,9.453 C 4.878,10.077 6.238,7.007 4.707,3.045 3.449,-0.074 0.721,-1.909 0.721,-1.909 2.055,-4.01 4.774,-3.227 5.634,-2.214 6.639,-1.06 7.165,0.917 7.433,1 7.688,1.063 8.025,1.012 8.182,0.93 8.654,0.674 8.711,-0.163 8.459,-1.105 8.11,-2.389 7.19,-3.665 6.213,-4.355 5.662,-4.727 4.861,-5.023 4.133,-5.128 2.62,-5.338 0.93,-4.969 -0.289,-3.866 c -0.224,0.201 -0.586,0.584 -0.779,0.841 -0.137,0 -3.76,-1.699 -5.473,0.561 -1.027,1.527 -0.956,2.87 0.15,6.196 1.125,3.092 2.59,5.435 3.791,5.288 2.235,-0.271 -1.475,-3.799 -2.235,-8.033 -0.472,-2.59 1.122,-3.074 2.903,-2.14 -0.281,1.035 -0.543,2.22 -0.324,3.793 0.438,2.605 1.867,6.14 4.654,6.813" />
    </g>
  </g>
</svg>
