<?xml version="1.0" encoding="UTF-8"?>
<svg id="Layer_1" xmlns="http://www.w3.org/2000/svg" width="512" height="512" version="1.1" viewBox="0 0 512 512">
  <!-- Generator: Adobe Illustrator 29.8.2, SVG Export Plug-In . SVG Version: 2.1.1 Build 3)  -->
  <path d="M84.5,312.5c-1.3-1.1-1.2-2.9-1.3-4.5-.1-3.6,0-9.8,0-17.4,0-21.8,0-54.8,0-68.2,0-2.3-.2-4.9,1.2-6.6.7-.7,1.8-1.1,3.4-1.3,1.8-.3,4.4-.3,7.6-.3,6.6,0,13.9,0,20.6,0,17.4,0,34.8-.5,44.8,14.5,3.6,5.6,5.2,12.9,4.7,19.7-1.5,20.5-22.1,19.8-19.3,29.5.7,2.5,2.8,5.9,5.4,9.8,3.9,5.9,9.3,13.8,12.8,19.3,2.1,3.4,3.7,6.2-1,6.4-15.7.3-48.2,0-68.9.1-5.4,0-8.5.1-9.9-.9h0Z" fill="#fff"/>
  <path d="M410.2,275.9" fill="#fff"/>
  <g>
    <path d="M241.2,313.4c12.6-29.9,28.3-68.4,41.3-98.5,1-1.8,1.5-.3,2.2,1,8.5,19.9,33.3,78.7,41.2,97.5" fill="#fff"/>
    <path d="M298.5,214.1c20.5,0,47.9,0,68.4,0,4.1.2,10.6-.7,11,1.3-7.3,21-32.3,78.4-40,98" fill="#fff"/>
  </g>
  <path d="M251.3,256.1c-2,1.9-4.6,1.9-9.1,1.9-17.7,0-45.2,0-58.6,0-8.9.4-8.2-3.8-8.5-11.6,0-5.1-.2-12.8.4-17.3.5-3.2,1.9-4.1,5.1-4.3,17.1-.2,60.6,0,77.4,0,2.4.2,6.1-.5,5.9,2.8-1,5.3-5.4,14-7.6,19.7-1.8,4.2-3.2,7.2-4.8,8.8h0Z" fill="#fff"/>
  <path d="M232.7,302c-2,1.9-7.2,1.9-11.6,1.8-7.2,0-14.8,0-22.1,0-4.9,0-9.6,0-14.4,0-8.5.2-9.2-2.4-9.5-9.1,0-5.9-.3-13.9.3-19.4.5-4.3,3.6-4.7,7.1-4.7,11.7,0,41.7,0,55.3,0,2.4.2,5.6-.4,7.3,1.3.5.7.5,1.8,0,3.4-.5,2-1.7,4.8-3.1,8.1-2.7,5.7-5.4,14.9-9.3,18.6h0Z" fill="#fff"/>
  <path d="M367.9,272.4c2-1.9,4.6-1.9,9.2-1.9,17.7,0,45.2,0,58.6,0,9-.4,8.2,3.9,8.5,11.8,0,5.1.3,12.7-.4,17.2-.6,3.2-2,4-5.2,4.1-17,.2-60.3,0-77.2,0-2.4-.2-6.3.6-6-2.8,1.1-5.3,5.4-13.9,7.6-19.6,1.8-4.2,3.2-7.2,4.9-8.8h0Z" fill="#fff"/>
  <path d="M386.5,226.5c2-1.9,7.1-1.9,11.4-1.8,7.2,0,14.8,0,22.2,0,4.3,0,8.5,0,12.6,0,6.4,0,10.8-.1,11.2,6.1.4,6.9.5,15.8-.1,22.4-.5,4.3-3.6,4.7-7.1,4.7-11.8,0-41.7,0-55.4,0-2.4-.2-5.6.4-7.3-1.3-.5-.7-.5-1.8,0-3.4.6-2,1.7-4.8,3.1-8.1,2.7-5.7,5.4-14.9,9.3-18.6h0Z" fill="#fff"/>
</svg>