<svg viewBox="0 0 512 512" xmlns="http://www.w3.org/2000/svg">
  <path d="M84.7,313.4h-.5v-99.3h47.6c10.1,0,18.3,2.7,24.3,8.2,6,5.5,9.2,13.3,9.2,22.9s-1.4,11.4-3.7,15.1-5.5,6.9-9.2,8.7-7.3,3.2-11,4.1l26.1,40.3h-82.9Z" fill="white" stroke="white" stroke-width="4" stroke-linejoin="round" stroke-linecap="round"/>
  <path d="M410.2,275.9" fill="white" stroke="white" stroke-width="4" stroke-linejoin="round" stroke-linecap="round"/>
  <g>
    <path d="M241.2,313.4l42.1-99.3,42.6,99.3" fill="white" stroke="white" stroke-width="4" stroke-linejoin="round" stroke-linecap="round"/>
    <path d="M298.5,214.1h79.7l-40.3,99.3" fill="white" stroke="white" stroke-width="4" stroke-linejoin="round" stroke-linecap="round"/>
  </g>
  <polygon points="251 258 175.9 258 175.9 224.7 264.7 224.7 251 258" fill="white" stroke="white" stroke-width="4" stroke-linejoin="round" stroke-linecap="round"/>
  <polygon points="232.7 303.8 175.9 303.8 175.9 270.5 246.4 270.5 232.7 303.8" fill="white" stroke="white" stroke-width="4" stroke-linejoin="round" stroke-linecap="round"/>
  <polygon points="368.2 270.5 443.3 270.5 443.3 303.8 354.4 303.8 368.2 270.5" fill="white" stroke="white" stroke-width="4" stroke-linejoin="round" stroke-linecap="round"/>
  <polygon points="386.5 224.7 443.3 224.7 443.3 258 372.7 258 386.5 224.7" fill="white" stroke="white" stroke-width="4" stroke-linejoin="round" stroke-linecap="round"/>
</svg>
