<svg xmlns="http://www.w3.org/2000/svg" viewBox="0 0 48 28" role="img" aria-label="Apple Pay">
  <rect width="48" height="28" rx="5" fill="#111"/>
  <path fill="#fff" d="M14.1 8.4c-.5.6-1.3 1.1-2.1 1-.1-.8.3-1.6.8-2.2.5-.6 1.4-1.1 2.1-1.1.1.9-.2 1.7-.8 2.3zm.8 1.2c-1.2 0-2.2.7-2.8.7-.6 0-1.5-.7-2.5-.7-1.3 0-2.5.8-3.1 1.9-1.4 2.3-.3 5.8 1 7.7.6.9 1.4 2 2.4 1.9.9 0 1.3-.6 2.4-.6s1.4.6 2.4.6c1 0 1.7-1 2.3-1.9.7-1 1-2 1-2.1-.1 0-1.8-.7-1.8-2.7 0-1.7 1.4-2.5 1.4-2.5-.8-1.1-2-1.3-2.4-1.3z"/>
  <path fill="#fff" d="M24.2 9.2h2.1l2.4 6.8h.1l2.4-6.8h2.1v9.3h-1.5v-7.2h-.1l-2.5 7.2h-1.4l-2.5-7.2h-.1v7.2h-1.5V9.2zm12.6 0c1.9 0 3.2 1 3.2 2.6 0 1.2-.7 2-1.8 2.4l2.2 4.3h-1.7l-1.9-3.9h-1.3v3.9h-1.5V9.2h2.8zm-.1 1.3h-1.2v2.7h1.2c1.1 0 1.7-.5 1.7-1.4s-.6-1.3-1.7-1.3z"/>
</svg>
